%TF.GenerationSoftware,KiCad,Pcbnew,9.0.0-1.fc41*%
%TF.CreationDate,2025-04-20T16:26:28+02:00*%
%TF.ProjectId,main_board,6d61696e-5f62-46f6-9172-642e6b696361,v1.0*%
%TF.SameCoordinates,Original*%
%TF.FileFunction,Legend,Top*%
%TF.FilePolarity,Positive*%
%FSLAX46Y46*%
G04 Gerber Fmt 4.6, Leading zero omitted, Abs format (unit mm)*
G04 Created by KiCad (PCBNEW 9.0.0-1.fc41) date 2025-04-20 16:26:28*
%MOMM*%
%LPD*%
G01*
G04 APERTURE LIST*
%ADD10C,0.100000*%
%ADD11C,0.150000*%
%ADD12C,0.120000*%
%ADD13C,0.000000*%
G04 APERTURE END LIST*
D10*
X151572419Y-75610401D02*
X152286704Y-75610401D01*
X152286704Y-75610401D02*
X152429561Y-75658020D01*
X152429561Y-75658020D02*
X152524800Y-75753258D01*
X152524800Y-75753258D02*
X152572419Y-75896115D01*
X152572419Y-75896115D02*
X152572419Y-75991353D01*
X152572419Y-74658020D02*
X152572419Y-75134210D01*
X152572419Y-75134210D02*
X151572419Y-75134210D01*
X152477180Y-73753258D02*
X152524800Y-73800877D01*
X152524800Y-73800877D02*
X152572419Y-73943734D01*
X152572419Y-73943734D02*
X152572419Y-74038972D01*
X152572419Y-74038972D02*
X152524800Y-74181829D01*
X152524800Y-74181829D02*
X152429561Y-74277067D01*
X152429561Y-74277067D02*
X152334323Y-74324686D01*
X152334323Y-74324686D02*
X152143847Y-74372305D01*
X152143847Y-74372305D02*
X152000990Y-74372305D01*
X152000990Y-74372305D02*
X151810514Y-74324686D01*
X151810514Y-74324686D02*
X151715276Y-74277067D01*
X151715276Y-74277067D02*
X151620038Y-74181829D01*
X151620038Y-74181829D02*
X151572419Y-74038972D01*
X151572419Y-74038972D02*
X151572419Y-73943734D01*
X151572419Y-73943734D02*
X151620038Y-73800877D01*
X151620038Y-73800877D02*
X151667657Y-73753258D01*
X151572419Y-73038972D02*
X152286704Y-73038972D01*
X152286704Y-73038972D02*
X152429561Y-73086591D01*
X152429561Y-73086591D02*
X152524800Y-73181829D01*
X152524800Y-73181829D02*
X152572419Y-73324686D01*
X152572419Y-73324686D02*
X152572419Y-73419924D01*
X152572419Y-72086591D02*
X152572419Y-72562781D01*
X152572419Y-72562781D02*
X151572419Y-72562781D01*
X152477180Y-71181829D02*
X152524800Y-71229448D01*
X152524800Y-71229448D02*
X152572419Y-71372305D01*
X152572419Y-71372305D02*
X152572419Y-71467543D01*
X152572419Y-71467543D02*
X152524800Y-71610400D01*
X152524800Y-71610400D02*
X152429561Y-71705638D01*
X152429561Y-71705638D02*
X152334323Y-71753257D01*
X152334323Y-71753257D02*
X152143847Y-71800876D01*
X152143847Y-71800876D02*
X152000990Y-71800876D01*
X152000990Y-71800876D02*
X151810514Y-71753257D01*
X151810514Y-71753257D02*
X151715276Y-71705638D01*
X151715276Y-71705638D02*
X151620038Y-71610400D01*
X151620038Y-71610400D02*
X151572419Y-71467543D01*
X151572419Y-71467543D02*
X151572419Y-71372305D01*
X151572419Y-71372305D02*
X151620038Y-71229448D01*
X151620038Y-71229448D02*
X151667657Y-71181829D01*
X151572419Y-70467543D02*
X152286704Y-70467543D01*
X152286704Y-70467543D02*
X152429561Y-70515162D01*
X152429561Y-70515162D02*
X152524800Y-70610400D01*
X152524800Y-70610400D02*
X152572419Y-70753257D01*
X152572419Y-70753257D02*
X152572419Y-70848495D01*
X152572419Y-69515162D02*
X152572419Y-69991352D01*
X152572419Y-69991352D02*
X151572419Y-69991352D01*
X152477180Y-68610400D02*
X152524800Y-68658019D01*
X152524800Y-68658019D02*
X152572419Y-68800876D01*
X152572419Y-68800876D02*
X152572419Y-68896114D01*
X152572419Y-68896114D02*
X152524800Y-69038971D01*
X152524800Y-69038971D02*
X152429561Y-69134209D01*
X152429561Y-69134209D02*
X152334323Y-69181828D01*
X152334323Y-69181828D02*
X152143847Y-69229447D01*
X152143847Y-69229447D02*
X152000990Y-69229447D01*
X152000990Y-69229447D02*
X151810514Y-69181828D01*
X151810514Y-69181828D02*
X151715276Y-69134209D01*
X151715276Y-69134209D02*
X151620038Y-69038971D01*
X151620038Y-69038971D02*
X151572419Y-68896114D01*
X151572419Y-68896114D02*
X151572419Y-68800876D01*
X151572419Y-68800876D02*
X151620038Y-68658019D01*
X151620038Y-68658019D02*
X151667657Y-68610400D01*
X151572419Y-67896114D02*
X152286704Y-67896114D01*
X152286704Y-67896114D02*
X152429561Y-67943733D01*
X152429561Y-67943733D02*
X152524800Y-68038971D01*
X152524800Y-68038971D02*
X152572419Y-68181828D01*
X152572419Y-68181828D02*
X152572419Y-68277066D01*
X152572419Y-66943733D02*
X152572419Y-67419923D01*
X152572419Y-67419923D02*
X151572419Y-67419923D01*
X152477180Y-66038971D02*
X152524800Y-66086590D01*
X152524800Y-66086590D02*
X152572419Y-66229447D01*
X152572419Y-66229447D02*
X152572419Y-66324685D01*
X152572419Y-66324685D02*
X152524800Y-66467542D01*
X152524800Y-66467542D02*
X152429561Y-66562780D01*
X152429561Y-66562780D02*
X152334323Y-66610399D01*
X152334323Y-66610399D02*
X152143847Y-66658018D01*
X152143847Y-66658018D02*
X152000990Y-66658018D01*
X152000990Y-66658018D02*
X151810514Y-66610399D01*
X151810514Y-66610399D02*
X151715276Y-66562780D01*
X151715276Y-66562780D02*
X151620038Y-66467542D01*
X151620038Y-66467542D02*
X151572419Y-66324685D01*
X151572419Y-66324685D02*
X151572419Y-66229447D01*
X151572419Y-66229447D02*
X151620038Y-66086590D01*
X151620038Y-66086590D02*
X151667657Y-66038971D01*
X156553884Y-48522419D02*
X156553884Y-47522419D01*
X156553884Y-47998609D02*
X157125312Y-47998609D01*
X157125312Y-48522419D02*
X157125312Y-47522419D01*
X158172931Y-48427180D02*
X158125312Y-48474800D01*
X158125312Y-48474800D02*
X157982455Y-48522419D01*
X157982455Y-48522419D02*
X157887217Y-48522419D01*
X157887217Y-48522419D02*
X157744360Y-48474800D01*
X157744360Y-48474800D02*
X157649122Y-48379561D01*
X157649122Y-48379561D02*
X157601503Y-48284323D01*
X157601503Y-48284323D02*
X157553884Y-48093847D01*
X157553884Y-48093847D02*
X157553884Y-47950990D01*
X157553884Y-47950990D02*
X157601503Y-47760514D01*
X157601503Y-47760514D02*
X157649122Y-47665276D01*
X157649122Y-47665276D02*
X157744360Y-47570038D01*
X157744360Y-47570038D02*
X157887217Y-47522419D01*
X157887217Y-47522419D02*
X157982455Y-47522419D01*
X157982455Y-47522419D02*
X158125312Y-47570038D01*
X158125312Y-47570038D02*
X158172931Y-47617657D01*
X158601503Y-48141466D02*
X159363408Y-48141466D01*
X159791979Y-48474800D02*
X159934836Y-48522419D01*
X159934836Y-48522419D02*
X160172931Y-48522419D01*
X160172931Y-48522419D02*
X160268169Y-48474800D01*
X160268169Y-48474800D02*
X160315788Y-48427180D01*
X160315788Y-48427180D02*
X160363407Y-48331942D01*
X160363407Y-48331942D02*
X160363407Y-48236704D01*
X160363407Y-48236704D02*
X160315788Y-48141466D01*
X160315788Y-48141466D02*
X160268169Y-48093847D01*
X160268169Y-48093847D02*
X160172931Y-48046228D01*
X160172931Y-48046228D02*
X159982455Y-47998609D01*
X159982455Y-47998609D02*
X159887217Y-47950990D01*
X159887217Y-47950990D02*
X159839598Y-47903371D01*
X159839598Y-47903371D02*
X159791979Y-47808133D01*
X159791979Y-47808133D02*
X159791979Y-47712895D01*
X159791979Y-47712895D02*
X159839598Y-47617657D01*
X159839598Y-47617657D02*
X159887217Y-47570038D01*
X159887217Y-47570038D02*
X159982455Y-47522419D01*
X159982455Y-47522419D02*
X160220550Y-47522419D01*
X160220550Y-47522419D02*
X160363407Y-47570038D01*
X161363407Y-48522419D02*
X161030074Y-48046228D01*
X160791979Y-48522419D02*
X160791979Y-47522419D01*
X160791979Y-47522419D02*
X161172931Y-47522419D01*
X161172931Y-47522419D02*
X161268169Y-47570038D01*
X161268169Y-47570038D02*
X161315788Y-47617657D01*
X161315788Y-47617657D02*
X161363407Y-47712895D01*
X161363407Y-47712895D02*
X161363407Y-47855752D01*
X161363407Y-47855752D02*
X161315788Y-47950990D01*
X161315788Y-47950990D02*
X161268169Y-47998609D01*
X161268169Y-47998609D02*
X161172931Y-48046228D01*
X161172931Y-48046228D02*
X160791979Y-48046228D01*
X161982455Y-47522419D02*
X162077693Y-47522419D01*
X162077693Y-47522419D02*
X162172931Y-47570038D01*
X162172931Y-47570038D02*
X162220550Y-47617657D01*
X162220550Y-47617657D02*
X162268169Y-47712895D01*
X162268169Y-47712895D02*
X162315788Y-47903371D01*
X162315788Y-47903371D02*
X162315788Y-48141466D01*
X162315788Y-48141466D02*
X162268169Y-48331942D01*
X162268169Y-48331942D02*
X162220550Y-48427180D01*
X162220550Y-48427180D02*
X162172931Y-48474800D01*
X162172931Y-48474800D02*
X162077693Y-48522419D01*
X162077693Y-48522419D02*
X161982455Y-48522419D01*
X161982455Y-48522419D02*
X161887217Y-48474800D01*
X161887217Y-48474800D02*
X161839598Y-48427180D01*
X161839598Y-48427180D02*
X161791979Y-48331942D01*
X161791979Y-48331942D02*
X161744360Y-48141466D01*
X161744360Y-48141466D02*
X161744360Y-47903371D01*
X161744360Y-47903371D02*
X161791979Y-47712895D01*
X161791979Y-47712895D02*
X161839598Y-47617657D01*
X161839598Y-47617657D02*
X161887217Y-47570038D01*
X161887217Y-47570038D02*
X161982455Y-47522419D01*
X163172931Y-47855752D02*
X163172931Y-48522419D01*
X162934836Y-47474800D02*
X162696741Y-48189085D01*
X162696741Y-48189085D02*
X163315788Y-48189085D01*
X117047580Y-109713884D02*
X118047580Y-109713884D01*
X118047580Y-109713884D02*
X118047580Y-109951979D01*
X118047580Y-109951979D02*
X117999961Y-110094836D01*
X117999961Y-110094836D02*
X117904723Y-110190074D01*
X117904723Y-110190074D02*
X117809485Y-110237693D01*
X117809485Y-110237693D02*
X117619009Y-110285312D01*
X117619009Y-110285312D02*
X117476152Y-110285312D01*
X117476152Y-110285312D02*
X117285676Y-110237693D01*
X117285676Y-110237693D02*
X117190438Y-110190074D01*
X117190438Y-110190074D02*
X117095200Y-110094836D01*
X117095200Y-110094836D02*
X117047580Y-109951979D01*
X117047580Y-109951979D02*
X117047580Y-109713884D01*
X117047580Y-110713884D02*
X117714247Y-110713884D01*
X117523771Y-110713884D02*
X117619009Y-110761503D01*
X117619009Y-110761503D02*
X117666628Y-110809122D01*
X117666628Y-110809122D02*
X117714247Y-110904360D01*
X117714247Y-110904360D02*
X117714247Y-110999598D01*
X117047580Y-111332932D02*
X117714247Y-111332932D01*
X118047580Y-111332932D02*
X117999961Y-111285313D01*
X117999961Y-111285313D02*
X117952342Y-111332932D01*
X117952342Y-111332932D02*
X117999961Y-111380551D01*
X117999961Y-111380551D02*
X118047580Y-111332932D01*
X118047580Y-111332932D02*
X117952342Y-111332932D01*
X117714247Y-111713884D02*
X117047580Y-111951979D01*
X117047580Y-111951979D02*
X117714247Y-112190074D01*
X117095200Y-112951979D02*
X117047580Y-112856741D01*
X117047580Y-112856741D02*
X117047580Y-112666265D01*
X117047580Y-112666265D02*
X117095200Y-112571027D01*
X117095200Y-112571027D02*
X117190438Y-112523408D01*
X117190438Y-112523408D02*
X117571390Y-112523408D01*
X117571390Y-112523408D02*
X117666628Y-112571027D01*
X117666628Y-112571027D02*
X117714247Y-112666265D01*
X117714247Y-112666265D02*
X117714247Y-112856741D01*
X117714247Y-112856741D02*
X117666628Y-112951979D01*
X117666628Y-112951979D02*
X117571390Y-112999598D01*
X117571390Y-112999598D02*
X117476152Y-112999598D01*
X117476152Y-112999598D02*
X117380914Y-112523408D01*
X117047580Y-113428170D02*
X117714247Y-113428170D01*
X117523771Y-113428170D02*
X117619009Y-113475789D01*
X117619009Y-113475789D02*
X117666628Y-113523408D01*
X117666628Y-113523408D02*
X117714247Y-113618646D01*
X117714247Y-113618646D02*
X117714247Y-113713884D01*
X118047580Y-113951980D02*
X118047580Y-114571027D01*
X118047580Y-114571027D02*
X117666628Y-114237694D01*
X117666628Y-114237694D02*
X117666628Y-114380551D01*
X117666628Y-114380551D02*
X117619009Y-114475789D01*
X117619009Y-114475789D02*
X117571390Y-114523408D01*
X117571390Y-114523408D02*
X117476152Y-114571027D01*
X117476152Y-114571027D02*
X117238057Y-114571027D01*
X117238057Y-114571027D02*
X117142819Y-114523408D01*
X117142819Y-114523408D02*
X117095200Y-114475789D01*
X117095200Y-114475789D02*
X117047580Y-114380551D01*
X117047580Y-114380551D02*
X117047580Y-114094837D01*
X117047580Y-114094837D02*
X117095200Y-113999599D01*
X117095200Y-113999599D02*
X117142819Y-113951980D01*
X173675312Y-45647419D02*
X173341979Y-45171228D01*
X173103884Y-45647419D02*
X173103884Y-44647419D01*
X173103884Y-44647419D02*
X173484836Y-44647419D01*
X173484836Y-44647419D02*
X173580074Y-44695038D01*
X173580074Y-44695038D02*
X173627693Y-44742657D01*
X173627693Y-44742657D02*
X173675312Y-44837895D01*
X173675312Y-44837895D02*
X173675312Y-44980752D01*
X173675312Y-44980752D02*
X173627693Y-45075990D01*
X173627693Y-45075990D02*
X173580074Y-45123609D01*
X173580074Y-45123609D02*
X173484836Y-45171228D01*
X173484836Y-45171228D02*
X173103884Y-45171228D01*
X174056265Y-45599800D02*
X174199122Y-45647419D01*
X174199122Y-45647419D02*
X174437217Y-45647419D01*
X174437217Y-45647419D02*
X174532455Y-45599800D01*
X174532455Y-45599800D02*
X174580074Y-45552180D01*
X174580074Y-45552180D02*
X174627693Y-45456942D01*
X174627693Y-45456942D02*
X174627693Y-45361704D01*
X174627693Y-45361704D02*
X174580074Y-45266466D01*
X174580074Y-45266466D02*
X174532455Y-45218847D01*
X174532455Y-45218847D02*
X174437217Y-45171228D01*
X174437217Y-45171228D02*
X174246741Y-45123609D01*
X174246741Y-45123609D02*
X174151503Y-45075990D01*
X174151503Y-45075990D02*
X174103884Y-45028371D01*
X174103884Y-45028371D02*
X174056265Y-44933133D01*
X174056265Y-44933133D02*
X174056265Y-44837895D01*
X174056265Y-44837895D02*
X174103884Y-44742657D01*
X174103884Y-44742657D02*
X174151503Y-44695038D01*
X174151503Y-44695038D02*
X174246741Y-44647419D01*
X174246741Y-44647419D02*
X174484836Y-44647419D01*
X174484836Y-44647419D02*
X174627693Y-44695038D01*
X174913408Y-44647419D02*
X175484836Y-44647419D01*
X175199122Y-45647419D02*
X175199122Y-44647419D01*
X180372419Y-63951115D02*
X179372419Y-63951115D01*
X179372419Y-63951115D02*
X179372419Y-63713020D01*
X179372419Y-63713020D02*
X179420038Y-63570163D01*
X179420038Y-63570163D02*
X179515276Y-63474925D01*
X179515276Y-63474925D02*
X179610514Y-63427306D01*
X179610514Y-63427306D02*
X179800990Y-63379687D01*
X179800990Y-63379687D02*
X179943847Y-63379687D01*
X179943847Y-63379687D02*
X180134323Y-63427306D01*
X180134323Y-63427306D02*
X180229561Y-63474925D01*
X180229561Y-63474925D02*
X180324800Y-63570163D01*
X180324800Y-63570163D02*
X180372419Y-63713020D01*
X180372419Y-63713020D02*
X180372419Y-63951115D01*
X180372419Y-62951115D02*
X179705752Y-62951115D01*
X179896228Y-62951115D02*
X179800990Y-62903496D01*
X179800990Y-62903496D02*
X179753371Y-62855877D01*
X179753371Y-62855877D02*
X179705752Y-62760639D01*
X179705752Y-62760639D02*
X179705752Y-62665401D01*
X180372419Y-62332067D02*
X179705752Y-62332067D01*
X179372419Y-62332067D02*
X179420038Y-62379686D01*
X179420038Y-62379686D02*
X179467657Y-62332067D01*
X179467657Y-62332067D02*
X179420038Y-62284448D01*
X179420038Y-62284448D02*
X179372419Y-62332067D01*
X179372419Y-62332067D02*
X179467657Y-62332067D01*
X179705752Y-61951115D02*
X180372419Y-61713020D01*
X180372419Y-61713020D02*
X179705752Y-61474925D01*
X180324800Y-60713020D02*
X180372419Y-60808258D01*
X180372419Y-60808258D02*
X180372419Y-60998734D01*
X180372419Y-60998734D02*
X180324800Y-61093972D01*
X180324800Y-61093972D02*
X180229561Y-61141591D01*
X180229561Y-61141591D02*
X179848609Y-61141591D01*
X179848609Y-61141591D02*
X179753371Y-61093972D01*
X179753371Y-61093972D02*
X179705752Y-60998734D01*
X179705752Y-60998734D02*
X179705752Y-60808258D01*
X179705752Y-60808258D02*
X179753371Y-60713020D01*
X179753371Y-60713020D02*
X179848609Y-60665401D01*
X179848609Y-60665401D02*
X179943847Y-60665401D01*
X179943847Y-60665401D02*
X180039085Y-61141591D01*
X180372419Y-60236829D02*
X179705752Y-60236829D01*
X179896228Y-60236829D02*
X179800990Y-60189210D01*
X179800990Y-60189210D02*
X179753371Y-60141591D01*
X179753371Y-60141591D02*
X179705752Y-60046353D01*
X179705752Y-60046353D02*
X179705752Y-59951115D01*
X179372419Y-59189210D02*
X179372419Y-59379686D01*
X179372419Y-59379686D02*
X179420038Y-59474924D01*
X179420038Y-59474924D02*
X179467657Y-59522543D01*
X179467657Y-59522543D02*
X179610514Y-59617781D01*
X179610514Y-59617781D02*
X179800990Y-59665400D01*
X179800990Y-59665400D02*
X180181942Y-59665400D01*
X180181942Y-59665400D02*
X180277180Y-59617781D01*
X180277180Y-59617781D02*
X180324800Y-59570162D01*
X180324800Y-59570162D02*
X180372419Y-59474924D01*
X180372419Y-59474924D02*
X180372419Y-59284448D01*
X180372419Y-59284448D02*
X180324800Y-59189210D01*
X180324800Y-59189210D02*
X180277180Y-59141591D01*
X180277180Y-59141591D02*
X180181942Y-59093972D01*
X180181942Y-59093972D02*
X179943847Y-59093972D01*
X179943847Y-59093972D02*
X179848609Y-59141591D01*
X179848609Y-59141591D02*
X179800990Y-59189210D01*
X179800990Y-59189210D02*
X179753371Y-59284448D01*
X179753371Y-59284448D02*
X179753371Y-59474924D01*
X179753371Y-59474924D02*
X179800990Y-59570162D01*
X179800990Y-59570162D02*
X179848609Y-59617781D01*
X179848609Y-59617781D02*
X179943847Y-59665400D01*
X161703884Y-44141466D02*
X162465789Y-44141466D01*
X162084836Y-44522419D02*
X162084836Y-43760514D01*
X117127580Y-80898884D02*
X118127580Y-80898884D01*
X118127580Y-80898884D02*
X118127580Y-81136979D01*
X118127580Y-81136979D02*
X118079961Y-81279836D01*
X118079961Y-81279836D02*
X117984723Y-81375074D01*
X117984723Y-81375074D02*
X117889485Y-81422693D01*
X117889485Y-81422693D02*
X117699009Y-81470312D01*
X117699009Y-81470312D02*
X117556152Y-81470312D01*
X117556152Y-81470312D02*
X117365676Y-81422693D01*
X117365676Y-81422693D02*
X117270438Y-81375074D01*
X117270438Y-81375074D02*
X117175200Y-81279836D01*
X117175200Y-81279836D02*
X117127580Y-81136979D01*
X117127580Y-81136979D02*
X117127580Y-80898884D01*
X117127580Y-81898884D02*
X117794247Y-81898884D01*
X117603771Y-81898884D02*
X117699009Y-81946503D01*
X117699009Y-81946503D02*
X117746628Y-81994122D01*
X117746628Y-81994122D02*
X117794247Y-82089360D01*
X117794247Y-82089360D02*
X117794247Y-82184598D01*
X117127580Y-82517932D02*
X117794247Y-82517932D01*
X118127580Y-82517932D02*
X118079961Y-82470313D01*
X118079961Y-82470313D02*
X118032342Y-82517932D01*
X118032342Y-82517932D02*
X118079961Y-82565551D01*
X118079961Y-82565551D02*
X118127580Y-82517932D01*
X118127580Y-82517932D02*
X118032342Y-82517932D01*
X117794247Y-82898884D02*
X117127580Y-83136979D01*
X117127580Y-83136979D02*
X117794247Y-83375074D01*
X117175200Y-84136979D02*
X117127580Y-84041741D01*
X117127580Y-84041741D02*
X117127580Y-83851265D01*
X117127580Y-83851265D02*
X117175200Y-83756027D01*
X117175200Y-83756027D02*
X117270438Y-83708408D01*
X117270438Y-83708408D02*
X117651390Y-83708408D01*
X117651390Y-83708408D02*
X117746628Y-83756027D01*
X117746628Y-83756027D02*
X117794247Y-83851265D01*
X117794247Y-83851265D02*
X117794247Y-84041741D01*
X117794247Y-84041741D02*
X117746628Y-84136979D01*
X117746628Y-84136979D02*
X117651390Y-84184598D01*
X117651390Y-84184598D02*
X117556152Y-84184598D01*
X117556152Y-84184598D02*
X117460914Y-83708408D01*
X117127580Y-84613170D02*
X117794247Y-84613170D01*
X117603771Y-84613170D02*
X117699009Y-84660789D01*
X117699009Y-84660789D02*
X117746628Y-84708408D01*
X117746628Y-84708408D02*
X117794247Y-84803646D01*
X117794247Y-84803646D02*
X117794247Y-84898884D01*
X118032342Y-85184599D02*
X118079961Y-85232218D01*
X118079961Y-85232218D02*
X118127580Y-85327456D01*
X118127580Y-85327456D02*
X118127580Y-85565551D01*
X118127580Y-85565551D02*
X118079961Y-85660789D01*
X118079961Y-85660789D02*
X118032342Y-85708408D01*
X118032342Y-85708408D02*
X117937104Y-85756027D01*
X117937104Y-85756027D02*
X117841866Y-85756027D01*
X117841866Y-85756027D02*
X117699009Y-85708408D01*
X117699009Y-85708408D02*
X117127580Y-85136980D01*
X117127580Y-85136980D02*
X117127580Y-85756027D01*
X147006265Y-48774800D02*
X147149122Y-48822419D01*
X147149122Y-48822419D02*
X147387217Y-48822419D01*
X147387217Y-48822419D02*
X147482455Y-48774800D01*
X147482455Y-48774800D02*
X147530074Y-48727180D01*
X147530074Y-48727180D02*
X147577693Y-48631942D01*
X147577693Y-48631942D02*
X147577693Y-48536704D01*
X147577693Y-48536704D02*
X147530074Y-48441466D01*
X147530074Y-48441466D02*
X147482455Y-48393847D01*
X147482455Y-48393847D02*
X147387217Y-48346228D01*
X147387217Y-48346228D02*
X147196741Y-48298609D01*
X147196741Y-48298609D02*
X147101503Y-48250990D01*
X147101503Y-48250990D02*
X147053884Y-48203371D01*
X147053884Y-48203371D02*
X147006265Y-48108133D01*
X147006265Y-48108133D02*
X147006265Y-48012895D01*
X147006265Y-48012895D02*
X147053884Y-47917657D01*
X147053884Y-47917657D02*
X147101503Y-47870038D01*
X147101503Y-47870038D02*
X147196741Y-47822419D01*
X147196741Y-47822419D02*
X147434836Y-47822419D01*
X147434836Y-47822419D02*
X147577693Y-47870038D01*
X148006265Y-48155752D02*
X148006265Y-49155752D01*
X148006265Y-48203371D02*
X148101503Y-48155752D01*
X148101503Y-48155752D02*
X148291979Y-48155752D01*
X148291979Y-48155752D02*
X148387217Y-48203371D01*
X148387217Y-48203371D02*
X148434836Y-48250990D01*
X148434836Y-48250990D02*
X148482455Y-48346228D01*
X148482455Y-48346228D02*
X148482455Y-48631942D01*
X148482455Y-48631942D02*
X148434836Y-48727180D01*
X148434836Y-48727180D02*
X148387217Y-48774800D01*
X148387217Y-48774800D02*
X148291979Y-48822419D01*
X148291979Y-48822419D02*
X148101503Y-48822419D01*
X148101503Y-48822419D02*
X148006265Y-48774800D01*
X149053884Y-48822419D02*
X148958646Y-48774800D01*
X148958646Y-48774800D02*
X148911027Y-48679561D01*
X148911027Y-48679561D02*
X148911027Y-47822419D01*
X149434837Y-48822419D02*
X149434837Y-48155752D01*
X149434837Y-47822419D02*
X149387218Y-47870038D01*
X149387218Y-47870038D02*
X149434837Y-47917657D01*
X149434837Y-47917657D02*
X149482456Y-47870038D01*
X149482456Y-47870038D02*
X149434837Y-47822419D01*
X149434837Y-47822419D02*
X149434837Y-47917657D01*
X149768170Y-48155752D02*
X150149122Y-48155752D01*
X149911027Y-47822419D02*
X149911027Y-48679561D01*
X149911027Y-48679561D02*
X149958646Y-48774800D01*
X149958646Y-48774800D02*
X150053884Y-48822419D01*
X150053884Y-48822419D02*
X150149122Y-48822419D01*
X150339599Y-48155752D02*
X150720551Y-48155752D01*
X150482456Y-47822419D02*
X150482456Y-48679561D01*
X150482456Y-48679561D02*
X150530075Y-48774800D01*
X150530075Y-48774800D02*
X150625313Y-48822419D01*
X150625313Y-48822419D02*
X150720551Y-48822419D01*
X151434837Y-48774800D02*
X151339599Y-48822419D01*
X151339599Y-48822419D02*
X151149123Y-48822419D01*
X151149123Y-48822419D02*
X151053885Y-48774800D01*
X151053885Y-48774800D02*
X151006266Y-48679561D01*
X151006266Y-48679561D02*
X151006266Y-48298609D01*
X151006266Y-48298609D02*
X151053885Y-48203371D01*
X151053885Y-48203371D02*
X151149123Y-48155752D01*
X151149123Y-48155752D02*
X151339599Y-48155752D01*
X151339599Y-48155752D02*
X151434837Y-48203371D01*
X151434837Y-48203371D02*
X151482456Y-48298609D01*
X151482456Y-48298609D02*
X151482456Y-48393847D01*
X151482456Y-48393847D02*
X151006266Y-48489085D01*
X151911028Y-48822419D02*
X151911028Y-48155752D01*
X151911028Y-48346228D02*
X151958647Y-48250990D01*
X151958647Y-48250990D02*
X152006266Y-48203371D01*
X152006266Y-48203371D02*
X152101504Y-48155752D01*
X152101504Y-48155752D02*
X152196742Y-48155752D01*
X117127580Y-54248884D02*
X118127580Y-54248884D01*
X118127580Y-54248884D02*
X118127580Y-54486979D01*
X118127580Y-54486979D02*
X118079961Y-54629836D01*
X118079961Y-54629836D02*
X117984723Y-54725074D01*
X117984723Y-54725074D02*
X117889485Y-54772693D01*
X117889485Y-54772693D02*
X117699009Y-54820312D01*
X117699009Y-54820312D02*
X117556152Y-54820312D01*
X117556152Y-54820312D02*
X117365676Y-54772693D01*
X117365676Y-54772693D02*
X117270438Y-54725074D01*
X117270438Y-54725074D02*
X117175200Y-54629836D01*
X117175200Y-54629836D02*
X117127580Y-54486979D01*
X117127580Y-54486979D02*
X117127580Y-54248884D01*
X117127580Y-55248884D02*
X117794247Y-55248884D01*
X117603771Y-55248884D02*
X117699009Y-55296503D01*
X117699009Y-55296503D02*
X117746628Y-55344122D01*
X117746628Y-55344122D02*
X117794247Y-55439360D01*
X117794247Y-55439360D02*
X117794247Y-55534598D01*
X117127580Y-55867932D02*
X117794247Y-55867932D01*
X118127580Y-55867932D02*
X118079961Y-55820313D01*
X118079961Y-55820313D02*
X118032342Y-55867932D01*
X118032342Y-55867932D02*
X118079961Y-55915551D01*
X118079961Y-55915551D02*
X118127580Y-55867932D01*
X118127580Y-55867932D02*
X118032342Y-55867932D01*
X117794247Y-56248884D02*
X117127580Y-56486979D01*
X117127580Y-56486979D02*
X117794247Y-56725074D01*
X117175200Y-57486979D02*
X117127580Y-57391741D01*
X117127580Y-57391741D02*
X117127580Y-57201265D01*
X117127580Y-57201265D02*
X117175200Y-57106027D01*
X117175200Y-57106027D02*
X117270438Y-57058408D01*
X117270438Y-57058408D02*
X117651390Y-57058408D01*
X117651390Y-57058408D02*
X117746628Y-57106027D01*
X117746628Y-57106027D02*
X117794247Y-57201265D01*
X117794247Y-57201265D02*
X117794247Y-57391741D01*
X117794247Y-57391741D02*
X117746628Y-57486979D01*
X117746628Y-57486979D02*
X117651390Y-57534598D01*
X117651390Y-57534598D02*
X117556152Y-57534598D01*
X117556152Y-57534598D02*
X117460914Y-57058408D01*
X117127580Y-57963170D02*
X117794247Y-57963170D01*
X117603771Y-57963170D02*
X117699009Y-58010789D01*
X117699009Y-58010789D02*
X117746628Y-58058408D01*
X117746628Y-58058408D02*
X117794247Y-58153646D01*
X117794247Y-58153646D02*
X117794247Y-58248884D01*
X117127580Y-59106027D02*
X117127580Y-58534599D01*
X117127580Y-58820313D02*
X118127580Y-58820313D01*
X118127580Y-58820313D02*
X117984723Y-58725075D01*
X117984723Y-58725075D02*
X117889485Y-58629837D01*
X117889485Y-58629837D02*
X117841866Y-58534599D01*
X141053884Y-117441466D02*
X141815789Y-117441466D01*
X141434836Y-117822419D02*
X141434836Y-117060514D01*
X142768169Y-116822419D02*
X142291979Y-116822419D01*
X142291979Y-116822419D02*
X142244360Y-117298609D01*
X142244360Y-117298609D02*
X142291979Y-117250990D01*
X142291979Y-117250990D02*
X142387217Y-117203371D01*
X142387217Y-117203371D02*
X142625312Y-117203371D01*
X142625312Y-117203371D02*
X142720550Y-117250990D01*
X142720550Y-117250990D02*
X142768169Y-117298609D01*
X142768169Y-117298609D02*
X142815788Y-117393847D01*
X142815788Y-117393847D02*
X142815788Y-117631942D01*
X142815788Y-117631942D02*
X142768169Y-117727180D01*
X142768169Y-117727180D02*
X142720550Y-117774800D01*
X142720550Y-117774800D02*
X142625312Y-117822419D01*
X142625312Y-117822419D02*
X142387217Y-117822419D01*
X142387217Y-117822419D02*
X142291979Y-117774800D01*
X142291979Y-117774800D02*
X142244360Y-117727180D01*
X143101503Y-116822419D02*
X143434836Y-117822419D01*
X143434836Y-117822419D02*
X143768169Y-116822419D01*
X154391466Y-44496115D02*
X154391466Y-43734211D01*
X180392419Y-90666115D02*
X179392419Y-90666115D01*
X179392419Y-90666115D02*
X179392419Y-90428020D01*
X179392419Y-90428020D02*
X179440038Y-90285163D01*
X179440038Y-90285163D02*
X179535276Y-90189925D01*
X179535276Y-90189925D02*
X179630514Y-90142306D01*
X179630514Y-90142306D02*
X179820990Y-90094687D01*
X179820990Y-90094687D02*
X179963847Y-90094687D01*
X179963847Y-90094687D02*
X180154323Y-90142306D01*
X180154323Y-90142306D02*
X180249561Y-90189925D01*
X180249561Y-90189925D02*
X180344800Y-90285163D01*
X180344800Y-90285163D02*
X180392419Y-90428020D01*
X180392419Y-90428020D02*
X180392419Y-90666115D01*
X180392419Y-89666115D02*
X179725752Y-89666115D01*
X179916228Y-89666115D02*
X179820990Y-89618496D01*
X179820990Y-89618496D02*
X179773371Y-89570877D01*
X179773371Y-89570877D02*
X179725752Y-89475639D01*
X179725752Y-89475639D02*
X179725752Y-89380401D01*
X180392419Y-89047067D02*
X179725752Y-89047067D01*
X179392419Y-89047067D02*
X179440038Y-89094686D01*
X179440038Y-89094686D02*
X179487657Y-89047067D01*
X179487657Y-89047067D02*
X179440038Y-88999448D01*
X179440038Y-88999448D02*
X179392419Y-89047067D01*
X179392419Y-89047067D02*
X179487657Y-89047067D01*
X179725752Y-88666115D02*
X180392419Y-88428020D01*
X180392419Y-88428020D02*
X179725752Y-88189925D01*
X180344800Y-87428020D02*
X180392419Y-87523258D01*
X180392419Y-87523258D02*
X180392419Y-87713734D01*
X180392419Y-87713734D02*
X180344800Y-87808972D01*
X180344800Y-87808972D02*
X180249561Y-87856591D01*
X180249561Y-87856591D02*
X179868609Y-87856591D01*
X179868609Y-87856591D02*
X179773371Y-87808972D01*
X179773371Y-87808972D02*
X179725752Y-87713734D01*
X179725752Y-87713734D02*
X179725752Y-87523258D01*
X179725752Y-87523258D02*
X179773371Y-87428020D01*
X179773371Y-87428020D02*
X179868609Y-87380401D01*
X179868609Y-87380401D02*
X179963847Y-87380401D01*
X179963847Y-87380401D02*
X180059085Y-87856591D01*
X180392419Y-86951829D02*
X179725752Y-86951829D01*
X179916228Y-86951829D02*
X179820990Y-86904210D01*
X179820990Y-86904210D02*
X179773371Y-86856591D01*
X179773371Y-86856591D02*
X179725752Y-86761353D01*
X179725752Y-86761353D02*
X179725752Y-86666115D01*
X179392419Y-85856591D02*
X179392419Y-86332781D01*
X179392419Y-86332781D02*
X179868609Y-86380400D01*
X179868609Y-86380400D02*
X179820990Y-86332781D01*
X179820990Y-86332781D02*
X179773371Y-86237543D01*
X179773371Y-86237543D02*
X179773371Y-85999448D01*
X179773371Y-85999448D02*
X179820990Y-85904210D01*
X179820990Y-85904210D02*
X179868609Y-85856591D01*
X179868609Y-85856591D02*
X179963847Y-85808972D01*
X179963847Y-85808972D02*
X180201942Y-85808972D01*
X180201942Y-85808972D02*
X180297180Y-85856591D01*
X180297180Y-85856591D02*
X180344800Y-85904210D01*
X180344800Y-85904210D02*
X180392419Y-85999448D01*
X180392419Y-85999448D02*
X180392419Y-86237543D01*
X180392419Y-86237543D02*
X180344800Y-86332781D01*
X180344800Y-86332781D02*
X180297180Y-86380400D01*
X155653884Y-122322419D02*
X155653884Y-121322419D01*
X156130074Y-122322419D02*
X156130074Y-121322419D01*
X156130074Y-121322419D02*
X156463407Y-122036704D01*
X156463407Y-122036704D02*
X156796740Y-121322419D01*
X156796740Y-121322419D02*
X156796740Y-122322419D01*
X157272931Y-121322419D02*
X157272931Y-122131942D01*
X157272931Y-122131942D02*
X157320550Y-122227180D01*
X157320550Y-122227180D02*
X157368169Y-122274800D01*
X157368169Y-122274800D02*
X157463407Y-122322419D01*
X157463407Y-122322419D02*
X157653883Y-122322419D01*
X157653883Y-122322419D02*
X157749121Y-122274800D01*
X157749121Y-122274800D02*
X157796740Y-122227180D01*
X157796740Y-122227180D02*
X157844359Y-122131942D01*
X157844359Y-122131942D02*
X157844359Y-121322419D01*
X180472419Y-119866115D02*
X179472419Y-119866115D01*
X179472419Y-119866115D02*
X179472419Y-119628020D01*
X179472419Y-119628020D02*
X179520038Y-119485163D01*
X179520038Y-119485163D02*
X179615276Y-119389925D01*
X179615276Y-119389925D02*
X179710514Y-119342306D01*
X179710514Y-119342306D02*
X179900990Y-119294687D01*
X179900990Y-119294687D02*
X180043847Y-119294687D01*
X180043847Y-119294687D02*
X180234323Y-119342306D01*
X180234323Y-119342306D02*
X180329561Y-119389925D01*
X180329561Y-119389925D02*
X180424800Y-119485163D01*
X180424800Y-119485163D02*
X180472419Y-119628020D01*
X180472419Y-119628020D02*
X180472419Y-119866115D01*
X180472419Y-118866115D02*
X179805752Y-118866115D01*
X179996228Y-118866115D02*
X179900990Y-118818496D01*
X179900990Y-118818496D02*
X179853371Y-118770877D01*
X179853371Y-118770877D02*
X179805752Y-118675639D01*
X179805752Y-118675639D02*
X179805752Y-118580401D01*
X180472419Y-118247067D02*
X179805752Y-118247067D01*
X179472419Y-118247067D02*
X179520038Y-118294686D01*
X179520038Y-118294686D02*
X179567657Y-118247067D01*
X179567657Y-118247067D02*
X179520038Y-118199448D01*
X179520038Y-118199448D02*
X179472419Y-118247067D01*
X179472419Y-118247067D02*
X179567657Y-118247067D01*
X179805752Y-117866115D02*
X180472419Y-117628020D01*
X180472419Y-117628020D02*
X179805752Y-117389925D01*
X180424800Y-116628020D02*
X180472419Y-116723258D01*
X180472419Y-116723258D02*
X180472419Y-116913734D01*
X180472419Y-116913734D02*
X180424800Y-117008972D01*
X180424800Y-117008972D02*
X180329561Y-117056591D01*
X180329561Y-117056591D02*
X179948609Y-117056591D01*
X179948609Y-117056591D02*
X179853371Y-117008972D01*
X179853371Y-117008972D02*
X179805752Y-116913734D01*
X179805752Y-116913734D02*
X179805752Y-116723258D01*
X179805752Y-116723258D02*
X179853371Y-116628020D01*
X179853371Y-116628020D02*
X179948609Y-116580401D01*
X179948609Y-116580401D02*
X180043847Y-116580401D01*
X180043847Y-116580401D02*
X180139085Y-117056591D01*
X180472419Y-116151829D02*
X179805752Y-116151829D01*
X179996228Y-116151829D02*
X179900990Y-116104210D01*
X179900990Y-116104210D02*
X179853371Y-116056591D01*
X179853371Y-116056591D02*
X179805752Y-115961353D01*
X179805752Y-115961353D02*
X179805752Y-115866115D01*
X179805752Y-115104210D02*
X180472419Y-115104210D01*
X179424800Y-115342305D02*
X180139085Y-115580400D01*
X180139085Y-115580400D02*
X180139085Y-114961353D01*
D11*
X169481904Y-64935180D02*
X169481904Y-64125657D01*
X169481904Y-64125657D02*
X169434285Y-64030419D01*
X169434285Y-64030419D02*
X169386666Y-63982800D01*
X169386666Y-63982800D02*
X169291428Y-63935180D01*
X169291428Y-63935180D02*
X169100952Y-63935180D01*
X169100952Y-63935180D02*
X169005714Y-63982800D01*
X169005714Y-63982800D02*
X168958095Y-64030419D01*
X168958095Y-64030419D02*
X168910476Y-64125657D01*
X168910476Y-64125657D02*
X168910476Y-64935180D01*
X168481904Y-63982800D02*
X168339047Y-63935180D01*
X168339047Y-63935180D02*
X168100952Y-63935180D01*
X168100952Y-63935180D02*
X168005714Y-63982800D01*
X168005714Y-63982800D02*
X167958095Y-64030419D01*
X167958095Y-64030419D02*
X167910476Y-64125657D01*
X167910476Y-64125657D02*
X167910476Y-64220895D01*
X167910476Y-64220895D02*
X167958095Y-64316133D01*
X167958095Y-64316133D02*
X168005714Y-64363752D01*
X168005714Y-64363752D02*
X168100952Y-64411371D01*
X168100952Y-64411371D02*
X168291428Y-64458990D01*
X168291428Y-64458990D02*
X168386666Y-64506609D01*
X168386666Y-64506609D02*
X168434285Y-64554228D01*
X168434285Y-64554228D02*
X168481904Y-64649466D01*
X168481904Y-64649466D02*
X168481904Y-64744704D01*
X168481904Y-64744704D02*
X168434285Y-64839942D01*
X168434285Y-64839942D02*
X168386666Y-64887561D01*
X168386666Y-64887561D02*
X168291428Y-64935180D01*
X168291428Y-64935180D02*
X168053333Y-64935180D01*
X168053333Y-64935180D02*
X167910476Y-64887561D01*
X167148571Y-64458990D02*
X167005714Y-64411371D01*
X167005714Y-64411371D02*
X166958095Y-64363752D01*
X166958095Y-64363752D02*
X166910476Y-64268514D01*
X166910476Y-64268514D02*
X166910476Y-64125657D01*
X166910476Y-64125657D02*
X166958095Y-64030419D01*
X166958095Y-64030419D02*
X167005714Y-63982800D01*
X167005714Y-63982800D02*
X167100952Y-63935180D01*
X167100952Y-63935180D02*
X167481904Y-63935180D01*
X167481904Y-63935180D02*
X167481904Y-64935180D01*
X167481904Y-64935180D02*
X167148571Y-64935180D01*
X167148571Y-64935180D02*
X167053333Y-64887561D01*
X167053333Y-64887561D02*
X167005714Y-64839942D01*
X167005714Y-64839942D02*
X166958095Y-64744704D01*
X166958095Y-64744704D02*
X166958095Y-64649466D01*
X166958095Y-64649466D02*
X167005714Y-64554228D01*
X167005714Y-64554228D02*
X167053333Y-64506609D01*
X167053333Y-64506609D02*
X167148571Y-64458990D01*
X167148571Y-64458990D02*
X167481904Y-64458990D01*
X146129523Y-59774819D02*
X146129523Y-58774819D01*
X146129523Y-58774819D02*
X146462856Y-59489104D01*
X146462856Y-59489104D02*
X146796189Y-58774819D01*
X146796189Y-58774819D02*
X146796189Y-59774819D01*
X147700951Y-59774819D02*
X147700951Y-59251009D01*
X147700951Y-59251009D02*
X147653332Y-59155771D01*
X147653332Y-59155771D02*
X147558094Y-59108152D01*
X147558094Y-59108152D02*
X147367618Y-59108152D01*
X147367618Y-59108152D02*
X147272380Y-59155771D01*
X147700951Y-59727200D02*
X147605713Y-59774819D01*
X147605713Y-59774819D02*
X147367618Y-59774819D01*
X147367618Y-59774819D02*
X147272380Y-59727200D01*
X147272380Y-59727200D02*
X147224761Y-59631961D01*
X147224761Y-59631961D02*
X147224761Y-59536723D01*
X147224761Y-59536723D02*
X147272380Y-59441485D01*
X147272380Y-59441485D02*
X147367618Y-59393866D01*
X147367618Y-59393866D02*
X147605713Y-59393866D01*
X147605713Y-59393866D02*
X147700951Y-59346247D01*
X148129523Y-59727200D02*
X148224761Y-59774819D01*
X148224761Y-59774819D02*
X148415237Y-59774819D01*
X148415237Y-59774819D02*
X148510475Y-59727200D01*
X148510475Y-59727200D02*
X148558094Y-59631961D01*
X148558094Y-59631961D02*
X148558094Y-59584342D01*
X148558094Y-59584342D02*
X148510475Y-59489104D01*
X148510475Y-59489104D02*
X148415237Y-59441485D01*
X148415237Y-59441485D02*
X148272380Y-59441485D01*
X148272380Y-59441485D02*
X148177142Y-59393866D01*
X148177142Y-59393866D02*
X148129523Y-59298628D01*
X148129523Y-59298628D02*
X148129523Y-59251009D01*
X148129523Y-59251009D02*
X148177142Y-59155771D01*
X148177142Y-59155771D02*
X148272380Y-59108152D01*
X148272380Y-59108152D02*
X148415237Y-59108152D01*
X148415237Y-59108152D02*
X148510475Y-59155771D01*
X148843809Y-59108152D02*
X149224761Y-59108152D01*
X148986666Y-58774819D02*
X148986666Y-59631961D01*
X148986666Y-59631961D02*
X149034285Y-59727200D01*
X149034285Y-59727200D02*
X149129523Y-59774819D01*
X149129523Y-59774819D02*
X149224761Y-59774819D01*
X149939047Y-59727200D02*
X149843809Y-59774819D01*
X149843809Y-59774819D02*
X149653333Y-59774819D01*
X149653333Y-59774819D02*
X149558095Y-59727200D01*
X149558095Y-59727200D02*
X149510476Y-59631961D01*
X149510476Y-59631961D02*
X149510476Y-59251009D01*
X149510476Y-59251009D02*
X149558095Y-59155771D01*
X149558095Y-59155771D02*
X149653333Y-59108152D01*
X149653333Y-59108152D02*
X149843809Y-59108152D01*
X149843809Y-59108152D02*
X149939047Y-59155771D01*
X149939047Y-59155771D02*
X149986666Y-59251009D01*
X149986666Y-59251009D02*
X149986666Y-59346247D01*
X149986666Y-59346247D02*
X149510476Y-59441485D01*
X150415238Y-59774819D02*
X150415238Y-59108152D01*
X150415238Y-59298628D02*
X150462857Y-59203390D01*
X150462857Y-59203390D02*
X150510476Y-59155771D01*
X150510476Y-59155771D02*
X150605714Y-59108152D01*
X150605714Y-59108152D02*
X150700952Y-59108152D01*
X151558095Y-59774819D02*
X150986667Y-59774819D01*
X151272381Y-59774819D02*
X151272381Y-58774819D01*
X151272381Y-58774819D02*
X151177143Y-58917676D01*
X151177143Y-58917676D02*
X151081905Y-59012914D01*
X151081905Y-59012914D02*
X150986667Y-59060533D01*
X147558095Y-99414819D02*
X147558095Y-100224342D01*
X147558095Y-100224342D02*
X147605714Y-100319580D01*
X147605714Y-100319580D02*
X147653333Y-100367200D01*
X147653333Y-100367200D02*
X147748571Y-100414819D01*
X147748571Y-100414819D02*
X147939047Y-100414819D01*
X147939047Y-100414819D02*
X148034285Y-100367200D01*
X148034285Y-100367200D02*
X148081904Y-100319580D01*
X148081904Y-100319580D02*
X148129523Y-100224342D01*
X148129523Y-100224342D02*
X148129523Y-99414819D01*
X148558095Y-100367200D02*
X148700952Y-100414819D01*
X148700952Y-100414819D02*
X148939047Y-100414819D01*
X148939047Y-100414819D02*
X149034285Y-100367200D01*
X149034285Y-100367200D02*
X149081904Y-100319580D01*
X149081904Y-100319580D02*
X149129523Y-100224342D01*
X149129523Y-100224342D02*
X149129523Y-100129104D01*
X149129523Y-100129104D02*
X149081904Y-100033866D01*
X149081904Y-100033866D02*
X149034285Y-99986247D01*
X149034285Y-99986247D02*
X148939047Y-99938628D01*
X148939047Y-99938628D02*
X148748571Y-99891009D01*
X148748571Y-99891009D02*
X148653333Y-99843390D01*
X148653333Y-99843390D02*
X148605714Y-99795771D01*
X148605714Y-99795771D02*
X148558095Y-99700533D01*
X148558095Y-99700533D02*
X148558095Y-99605295D01*
X148558095Y-99605295D02*
X148605714Y-99510057D01*
X148605714Y-99510057D02*
X148653333Y-99462438D01*
X148653333Y-99462438D02*
X148748571Y-99414819D01*
X148748571Y-99414819D02*
X148986666Y-99414819D01*
X148986666Y-99414819D02*
X149129523Y-99462438D01*
X149891428Y-99891009D02*
X150034285Y-99938628D01*
X150034285Y-99938628D02*
X150081904Y-99986247D01*
X150081904Y-99986247D02*
X150129523Y-100081485D01*
X150129523Y-100081485D02*
X150129523Y-100224342D01*
X150129523Y-100224342D02*
X150081904Y-100319580D01*
X150081904Y-100319580D02*
X150034285Y-100367200D01*
X150034285Y-100367200D02*
X149939047Y-100414819D01*
X149939047Y-100414819D02*
X149558095Y-100414819D01*
X149558095Y-100414819D02*
X149558095Y-99414819D01*
X149558095Y-99414819D02*
X149891428Y-99414819D01*
X149891428Y-99414819D02*
X149986666Y-99462438D01*
X149986666Y-99462438D02*
X150034285Y-99510057D01*
X150034285Y-99510057D02*
X150081904Y-99605295D01*
X150081904Y-99605295D02*
X150081904Y-99700533D01*
X150081904Y-99700533D02*
X150034285Y-99795771D01*
X150034285Y-99795771D02*
X149986666Y-99843390D01*
X149986666Y-99843390D02*
X149891428Y-99891009D01*
X149891428Y-99891009D02*
X149558095Y-99891009D01*
X127953095Y-99469819D02*
X127953095Y-100279342D01*
X127953095Y-100279342D02*
X128000714Y-100374580D01*
X128000714Y-100374580D02*
X128048333Y-100422200D01*
X128048333Y-100422200D02*
X128143571Y-100469819D01*
X128143571Y-100469819D02*
X128334047Y-100469819D01*
X128334047Y-100469819D02*
X128429285Y-100422200D01*
X128429285Y-100422200D02*
X128476904Y-100374580D01*
X128476904Y-100374580D02*
X128524523Y-100279342D01*
X128524523Y-100279342D02*
X128524523Y-99469819D01*
X128953095Y-100422200D02*
X129095952Y-100469819D01*
X129095952Y-100469819D02*
X129334047Y-100469819D01*
X129334047Y-100469819D02*
X129429285Y-100422200D01*
X129429285Y-100422200D02*
X129476904Y-100374580D01*
X129476904Y-100374580D02*
X129524523Y-100279342D01*
X129524523Y-100279342D02*
X129524523Y-100184104D01*
X129524523Y-100184104D02*
X129476904Y-100088866D01*
X129476904Y-100088866D02*
X129429285Y-100041247D01*
X129429285Y-100041247D02*
X129334047Y-99993628D01*
X129334047Y-99993628D02*
X129143571Y-99946009D01*
X129143571Y-99946009D02*
X129048333Y-99898390D01*
X129048333Y-99898390D02*
X129000714Y-99850771D01*
X129000714Y-99850771D02*
X128953095Y-99755533D01*
X128953095Y-99755533D02*
X128953095Y-99660295D01*
X128953095Y-99660295D02*
X129000714Y-99565057D01*
X129000714Y-99565057D02*
X129048333Y-99517438D01*
X129048333Y-99517438D02*
X129143571Y-99469819D01*
X129143571Y-99469819D02*
X129381666Y-99469819D01*
X129381666Y-99469819D02*
X129524523Y-99517438D01*
X130286428Y-99946009D02*
X130429285Y-99993628D01*
X130429285Y-99993628D02*
X130476904Y-100041247D01*
X130476904Y-100041247D02*
X130524523Y-100136485D01*
X130524523Y-100136485D02*
X130524523Y-100279342D01*
X130524523Y-100279342D02*
X130476904Y-100374580D01*
X130476904Y-100374580D02*
X130429285Y-100422200D01*
X130429285Y-100422200D02*
X130334047Y-100469819D01*
X130334047Y-100469819D02*
X129953095Y-100469819D01*
X129953095Y-100469819D02*
X129953095Y-99469819D01*
X129953095Y-99469819D02*
X130286428Y-99469819D01*
X130286428Y-99469819D02*
X130381666Y-99517438D01*
X130381666Y-99517438D02*
X130429285Y-99565057D01*
X130429285Y-99565057D02*
X130476904Y-99660295D01*
X130476904Y-99660295D02*
X130476904Y-99755533D01*
X130476904Y-99755533D02*
X130429285Y-99850771D01*
X130429285Y-99850771D02*
X130381666Y-99898390D01*
X130381666Y-99898390D02*
X130286428Y-99946009D01*
X130286428Y-99946009D02*
X129953095Y-99946009D01*
D10*
%TO.C,J3*%
X139860000Y-118145000D02*
X139860000Y-118645000D01*
X139860000Y-118145000D02*
X140360000Y-118145000D01*
X139860000Y-120945000D02*
X139860000Y-120445000D01*
X139860000Y-120945000D02*
X140360000Y-120945000D01*
X157760000Y-118145000D02*
X157260000Y-118145000D01*
X157760000Y-118145000D02*
X157760000Y-118645000D01*
X157760000Y-120945000D02*
X157260000Y-120945000D01*
X157760000Y-120945000D02*
X157760000Y-120445000D01*
%TO.C,J15*%
X180600000Y-120170000D02*
X180600000Y-119670000D01*
X180600000Y-120170000D02*
X181100000Y-120170000D01*
X187200000Y-120170000D02*
X186700000Y-120170000D01*
X187200000Y-120170000D02*
X187200000Y-119670000D01*
%TO.C,J19*%
X180520000Y-80100000D02*
X180520000Y-79600000D01*
X180520000Y-80100000D02*
X181020000Y-80100000D01*
X180540000Y-74960000D02*
X180540000Y-75460000D01*
X180540000Y-74960000D02*
X181040000Y-74960000D01*
X187110000Y-74950000D02*
X186610000Y-74950000D01*
X187110000Y-74950000D02*
X187110000Y-75450000D01*
X187120000Y-80100000D02*
X186620000Y-80100000D01*
X187120000Y-80100000D02*
X187120000Y-79600000D01*
%TO.C,U2*%
X136700000Y-49400000D02*
X136700000Y-49700000D01*
X136700000Y-51075000D02*
X136700000Y-50700000D01*
X136700000Y-51075000D02*
X136925000Y-51400000D01*
X136925000Y-51400000D02*
X137025000Y-51400000D01*
X137025000Y-49400000D02*
X136700000Y-49400000D01*
X137025000Y-51400000D02*
X137025000Y-51925000D01*
X139675000Y-51400000D02*
X140000000Y-51400000D01*
X139700000Y-49400000D02*
X140000000Y-49400000D01*
X140000000Y-49400000D02*
X140000000Y-49725000D01*
X140000000Y-51400000D02*
X140000000Y-51100000D01*
%TO.C,J2*%
X110400000Y-74805000D02*
X110400000Y-75305000D01*
X110400000Y-74805000D02*
X110900000Y-74805000D01*
X110410000Y-79955000D02*
X110410000Y-79455000D01*
X110410000Y-79955000D02*
X110910000Y-79955000D01*
X116980000Y-79945000D02*
X116480000Y-79945000D01*
X116980000Y-79945000D02*
X116980000Y-79445000D01*
X117000000Y-74805000D02*
X116500000Y-74805000D01*
X117000000Y-74805000D02*
X117000000Y-75305000D01*
D12*
%TO.C,J11*%
X171830000Y-112580000D02*
X171830000Y-120420000D01*
X171830000Y-112580000D02*
X179070000Y-112580000D01*
X171830000Y-118800000D02*
X179070000Y-118800000D01*
X171830000Y-119900000D02*
X179070000Y-119900000D01*
X171830000Y-120420000D02*
X173400000Y-120420000D01*
X174000000Y-120420000D02*
X179070000Y-120420000D01*
X175904000Y-116869000D02*
X175789000Y-116983000D01*
X176131000Y-117096000D02*
X176016000Y-117210000D01*
X178384000Y-114389000D02*
X178269000Y-114504000D01*
X178611000Y-114616000D02*
X178496000Y-114731000D01*
X179070000Y-112580000D02*
X179070000Y-120420000D01*
X172020000Y-116598000D02*
G75*
G02*
X172020192Y-115001595I1679997J798000D01*
G01*
X172902000Y-114120000D02*
G75*
G02*
X174498405Y-114120192I798000J-1680000D01*
G01*
X174498000Y-117480000D02*
G75*
G02*
X172901595Y-117479808I-798000J1679997D01*
G01*
X175380000Y-115416000D02*
G75*
G02*
X175379865Y-116183361I1820000J-384000D01*
G01*
X174140000Y-121030000D02*
X173260000Y-121030000D01*
X173700000Y-120420000D01*
X174140000Y-121030000D01*
G36*
X174140000Y-121030000D02*
G01*
X173260000Y-121030000D01*
X173700000Y-120420000D01*
X174140000Y-121030000D01*
G37*
D10*
%TO.C,J16*%
X180520000Y-90970000D02*
X180520000Y-90470000D01*
X180520000Y-90970000D02*
X181020000Y-90970000D01*
X187120000Y-90970000D02*
X186620000Y-90970000D01*
X187120000Y-90970000D02*
X187120000Y-90470000D01*
%TO.C,J10*%
X110400000Y-48195000D02*
X110400000Y-48695000D01*
X110400000Y-48195000D02*
X110900000Y-48195000D01*
X110410000Y-53345000D02*
X110410000Y-52845000D01*
X110410000Y-53345000D02*
X110910000Y-53345000D01*
X116980000Y-53335000D02*
X116480000Y-53335000D01*
X116980000Y-53335000D02*
X116980000Y-52835000D01*
X117000000Y-48195000D02*
X116500000Y-48195000D01*
X117000000Y-48195000D02*
X117000000Y-48695000D01*
%TO.C,J17*%
X180500000Y-64255000D02*
X180500000Y-63755000D01*
X180500000Y-64255000D02*
X181000000Y-64255000D01*
X187100000Y-64255000D02*
X186600000Y-64255000D01*
X187100000Y-64255000D02*
X187100000Y-63755000D01*
%TO.C,J14*%
X110320000Y-109410000D02*
X110320000Y-109910000D01*
X110320000Y-109410000D02*
X110820000Y-109410000D01*
X116920000Y-109410000D02*
X116420000Y-109410000D01*
X116920000Y-109410000D02*
X116920000Y-109910000D01*
%TO.C,J20*%
X180500000Y-53360000D02*
X180500000Y-52860000D01*
X180500000Y-53360000D02*
X181000000Y-53360000D01*
X180520000Y-48220000D02*
X180520000Y-48720000D01*
X180520000Y-48220000D02*
X181020000Y-48220000D01*
X187090000Y-48210000D02*
X186590000Y-48210000D01*
X187090000Y-48210000D02*
X187090000Y-48710000D01*
X187100000Y-53360000D02*
X186600000Y-53360000D01*
X187100000Y-53360000D02*
X187100000Y-52860000D01*
D12*
%TO.C,J1*%
X118480000Y-112580000D02*
X118480000Y-120420000D01*
X118480000Y-112580000D02*
X125720000Y-112580000D01*
X118480000Y-118800000D02*
X125720000Y-118800000D01*
X118480000Y-119900000D02*
X125720000Y-119900000D01*
X118480000Y-120420000D02*
X120050000Y-120420000D01*
X120650000Y-120420000D02*
X125720000Y-120420000D01*
X122554000Y-116869000D02*
X122439000Y-116983000D01*
X122781000Y-117096000D02*
X122666000Y-117210000D01*
X125034000Y-114389000D02*
X124919000Y-114504000D01*
X125261000Y-114616000D02*
X125146000Y-114731000D01*
X125720000Y-112580000D02*
X125720000Y-120420000D01*
X118670000Y-116598000D02*
G75*
G02*
X118670192Y-115001595I1679997J798000D01*
G01*
X119552000Y-114120000D02*
G75*
G02*
X121148405Y-114120192I798000J-1680000D01*
G01*
X121148000Y-117480000D02*
G75*
G02*
X119551595Y-117479808I-798000J1679997D01*
G01*
X122030000Y-115416000D02*
G75*
G02*
X122029865Y-116183361I1820000J-384000D01*
G01*
X120790000Y-121030000D02*
X119910000Y-121030000D01*
X120350000Y-120420000D01*
X120790000Y-121030000D01*
G36*
X120790000Y-121030000D02*
G01*
X119910000Y-121030000D01*
X120350000Y-120420000D01*
X120790000Y-121030000D01*
G37*
D13*
%TO.C,G\u002A\u002A\u002A*%
G36*
X132860089Y-109196728D02*
G01*
X132992838Y-109393867D01*
X133135799Y-109612426D01*
X133285297Y-109846451D01*
X133437656Y-110089986D01*
X133589201Y-110337080D01*
X133736257Y-110581776D01*
X133875147Y-110818122D01*
X134002197Y-111040163D01*
X134042272Y-111111752D01*
X134370433Y-111720809D01*
X134681917Y-112338560D01*
X134977440Y-112966959D01*
X135257720Y-113607961D01*
X135523472Y-114263519D01*
X135775415Y-114935589D01*
X136014264Y-115626125D01*
X136240737Y-116337080D01*
X136455550Y-117070410D01*
X136659420Y-117828069D01*
X136853064Y-118612011D01*
X136955234Y-119054048D01*
X136990252Y-119209876D01*
X137024064Y-119361947D01*
X137056986Y-119511911D01*
X137089338Y-119661414D01*
X137121436Y-119812106D01*
X137153598Y-119965636D01*
X137186143Y-120123651D01*
X137219388Y-120287800D01*
X137253651Y-120459731D01*
X137289250Y-120641094D01*
X137326502Y-120833536D01*
X137365726Y-121038705D01*
X137407240Y-121258251D01*
X137451360Y-121493822D01*
X137498406Y-121747065D01*
X137548694Y-122019630D01*
X137602543Y-122313166D01*
X137660271Y-122629319D01*
X137722195Y-122969740D01*
X137788633Y-123336076D01*
X137859903Y-123729976D01*
X137906264Y-123986586D01*
X137937942Y-124163056D01*
X137963848Y-124310381D01*
X137983961Y-124429566D01*
X137998265Y-124521615D01*
X138006741Y-124587535D01*
X138009371Y-124628329D01*
X138006136Y-124645004D01*
X137997019Y-124638565D01*
X137982001Y-124610016D01*
X137961065Y-124560363D01*
X137934191Y-124490611D01*
X137901362Y-124401765D01*
X137898876Y-124394954D01*
X137743799Y-123982674D01*
X137583376Y-123580906D01*
X137418701Y-123191890D01*
X137250870Y-122817863D01*
X137080977Y-122461064D01*
X136910117Y-122123732D01*
X136739385Y-121808104D01*
X136569875Y-121516421D01*
X136402682Y-121250919D01*
X136258933Y-121041541D01*
X136058776Y-120779206D01*
X135856771Y-120546878D01*
X135653046Y-120344627D01*
X135447727Y-120172520D01*
X135240941Y-120030626D01*
X135032814Y-119919014D01*
X134823475Y-119837753D01*
X134613049Y-119786911D01*
X134401663Y-119766556D01*
X134189445Y-119776759D01*
X133990981Y-119813848D01*
X133885968Y-119842812D01*
X133786607Y-119875694D01*
X133688629Y-119914633D01*
X133587763Y-119961765D01*
X133479739Y-120019228D01*
X133360289Y-120089159D01*
X133225141Y-120173694D01*
X133071000Y-120274327D01*
X132728854Y-120511259D01*
X132375498Y-120775906D01*
X132011545Y-121067655D01*
X131637611Y-121385895D01*
X131254309Y-121730015D01*
X130862254Y-122099401D01*
X130462060Y-122493444D01*
X130054341Y-122911530D01*
X129639711Y-123353049D01*
X129218784Y-123817388D01*
X128792175Y-124303936D01*
X128360497Y-124812081D01*
X127924366Y-125341212D01*
X127684022Y-125639451D01*
X127606482Y-125736297D01*
X127535205Y-125825072D01*
X127472407Y-125903040D01*
X127420300Y-125967462D01*
X127381098Y-126015600D01*
X127357014Y-126044716D01*
X127350102Y-126052477D01*
X127349986Y-126038010D01*
X127351971Y-125997940D01*
X127355753Y-125937264D01*
X127361023Y-125860980D01*
X127365854Y-125795408D01*
X127456200Y-124741022D01*
X127566230Y-123709950D01*
X127696007Y-122701901D01*
X127845591Y-121716587D01*
X128015045Y-120753717D01*
X128204430Y-119813001D01*
X128413808Y-118894150D01*
X128643241Y-117996874D01*
X128892790Y-117120882D01*
X129162518Y-116265886D01*
X129279322Y-115929817D01*
X130944537Y-115929817D01*
X131524851Y-116219793D01*
X131648266Y-116281495D01*
X131762892Y-116338865D01*
X131865878Y-116390473D01*
X131954370Y-116434885D01*
X132025517Y-116470670D01*
X132076467Y-116496396D01*
X132104368Y-116510630D01*
X132108855Y-116513040D01*
X132107925Y-116528469D01*
X132103776Y-116571272D01*
X132096748Y-116638336D01*
X132087180Y-116726546D01*
X132075413Y-116832790D01*
X132061787Y-116953954D01*
X132046644Y-117086923D01*
X132035954Y-117179885D01*
X132016715Y-117346688D01*
X132000777Y-117485480D01*
X131987912Y-117598737D01*
X131977896Y-117688940D01*
X131970502Y-117758568D01*
X131965505Y-117810100D01*
X131962679Y-117846014D01*
X131961797Y-117868790D01*
X131962634Y-117880908D01*
X131964963Y-117884845D01*
X131968560Y-117883082D01*
X131972224Y-117879202D01*
X131982419Y-117863421D01*
X132006643Y-117823854D01*
X132043314Y-117763147D01*
X132090849Y-117683943D01*
X132147663Y-117588884D01*
X132212176Y-117480614D01*
X132282803Y-117361777D01*
X132357748Y-117235377D01*
X132433063Y-117108431D01*
X132504012Y-116989268D01*
X132568990Y-116880558D01*
X132626389Y-116784969D01*
X132674602Y-116705169D01*
X132712023Y-116643828D01*
X132737044Y-116603614D01*
X132748022Y-116587234D01*
X132755748Y-116588672D01*
X132770450Y-116603922D01*
X132793165Y-116634625D01*
X132824928Y-116682425D01*
X132866777Y-116748965D01*
X132919747Y-116835886D01*
X132984875Y-116944832D01*
X133063197Y-117077447D01*
X133141380Y-117210794D01*
X133216101Y-117338358D01*
X133286031Y-117457369D01*
X133349668Y-117565294D01*
X133405506Y-117659599D01*
X133452042Y-117737753D01*
X133487771Y-117797221D01*
X133511190Y-117835470D01*
X133520794Y-117849968D01*
X133520931Y-117850020D01*
X133520102Y-117834589D01*
X133516166Y-117791833D01*
X133509458Y-117724929D01*
X133500309Y-117637055D01*
X133489053Y-117531387D01*
X133476023Y-117411102D01*
X133461552Y-117279377D01*
X133453667Y-117208306D01*
X133438645Y-117071105D01*
X133425096Y-116942988D01*
X133413333Y-116827256D01*
X133403671Y-116727205D01*
X133396423Y-116646135D01*
X133391902Y-116587344D01*
X133390422Y-116554131D01*
X133390903Y-116548190D01*
X133405868Y-116536572D01*
X133445155Y-116512375D01*
X133505874Y-116477216D01*
X133585131Y-116432710D01*
X133680035Y-116380473D01*
X133787693Y-116322122D01*
X133905212Y-116259272D01*
X133960690Y-116229874D01*
X134081006Y-116166128D01*
X134192265Y-116106847D01*
X134291670Y-116053547D01*
X134376423Y-116007743D01*
X134443728Y-115970949D01*
X134490788Y-115944681D01*
X134514807Y-115930454D01*
X134517333Y-115928351D01*
X134502241Y-115922544D01*
X134461105Y-115907938D01*
X134396953Y-115885579D01*
X134312815Y-115856512D01*
X134211720Y-115821781D01*
X134096697Y-115782430D01*
X133970776Y-115739505D01*
X133899705Y-115715340D01*
X133768825Y-115670699D01*
X133646949Y-115628784D01*
X133537154Y-115590678D01*
X133442520Y-115557465D01*
X133366122Y-115530230D01*
X133311040Y-115510056D01*
X133280351Y-115498027D01*
X133275040Y-115495336D01*
X133271794Y-115478959D01*
X133265077Y-115433861D01*
X133255114Y-115361793D01*
X133242127Y-115264505D01*
X133226339Y-115143748D01*
X133207971Y-115001273D01*
X133187248Y-114838831D01*
X133164392Y-114658172D01*
X133139626Y-114461048D01*
X133113171Y-114249209D01*
X133085252Y-114024406D01*
X133056091Y-113788389D01*
X133025909Y-113542910D01*
X133006460Y-113384091D01*
X132966627Y-113059286D01*
X132929837Y-112761276D01*
X132896132Y-112490393D01*
X132865556Y-112246971D01*
X132838153Y-112031340D01*
X132813965Y-111843835D01*
X132793036Y-111684786D01*
X132775410Y-111554527D01*
X132761129Y-111453390D01*
X132750237Y-111381708D01*
X132742778Y-111339812D01*
X132738795Y-111328035D01*
X132738550Y-111328670D01*
X132735332Y-111348989D01*
X132728576Y-111397966D01*
X132718512Y-111473795D01*
X132705369Y-111574671D01*
X132689376Y-111698788D01*
X132670763Y-111844342D01*
X132649758Y-112009527D01*
X132626592Y-112192537D01*
X132601493Y-112391568D01*
X132574691Y-112604813D01*
X132546415Y-112830469D01*
X132516895Y-113066728D01*
X132486359Y-113311787D01*
X132471756Y-113429214D01*
X132440638Y-113678725D01*
X132410381Y-113919625D01*
X132381216Y-114150159D01*
X132353373Y-114368572D01*
X132327084Y-114573108D01*
X132302578Y-114762014D01*
X132280087Y-114933533D01*
X132259842Y-115085912D01*
X132242073Y-115217394D01*
X132227011Y-115326226D01*
X132214886Y-115410652D01*
X132205930Y-115468918D01*
X132200374Y-115499267D01*
X132199036Y-115503357D01*
X132181215Y-115511782D01*
X132137324Y-115528638D01*
X132070475Y-115552837D01*
X131983778Y-115583294D01*
X131880346Y-115618921D01*
X131763290Y-115658632D01*
X131635723Y-115701341D01*
X131563220Y-115725381D01*
X130944537Y-115929817D01*
X129279322Y-115929817D01*
X129452484Y-115431596D01*
X129725864Y-114710725D01*
X130086030Y-113836111D01*
X130468779Y-112981036D01*
X130875478Y-112142856D01*
X131307492Y-111318928D01*
X131766189Y-110506611D01*
X132252933Y-109703261D01*
X132572093Y-109204401D01*
X132715156Y-108985268D01*
X132860089Y-109196728D01*
G37*
D10*
%TO.C,J22*%
X180550000Y-109150000D02*
X180550000Y-108650000D01*
X180550000Y-109150000D02*
X181050000Y-109150000D01*
X180560000Y-101480000D02*
X180560000Y-101980000D01*
X180560000Y-101480000D02*
X181060000Y-101480000D01*
X187140000Y-101480000D02*
X186640000Y-101480000D01*
X187140000Y-101480000D02*
X187140000Y-101980000D01*
X187150000Y-109150000D02*
X186650000Y-109150000D01*
X187150000Y-109150000D02*
X187150000Y-108650000D01*
%TO.C,S1*%
X169575000Y-45400000D02*
X169575000Y-45900000D01*
X169575000Y-45400000D02*
X170075000Y-45400000D01*
X169575000Y-48600000D02*
X169575000Y-48200000D01*
X169575000Y-48600000D02*
X170075000Y-48600000D01*
X172275000Y-45400000D02*
X172275000Y-45000000D01*
X172775000Y-45400000D02*
X172275000Y-45400000D01*
X172775000Y-45400000D02*
X172775000Y-45900000D01*
X172775000Y-48600000D02*
X172275000Y-48600000D01*
X172775000Y-48600000D02*
X172775000Y-48100000D01*
D12*
%TO.C,J18*%
X123630000Y-44980000D02*
X123630000Y-52820000D01*
X123630000Y-44980000D02*
X130870000Y-44980000D01*
X123630000Y-51200000D02*
X130870000Y-51200000D01*
X123630000Y-52300000D02*
X130870000Y-52300000D01*
X123630000Y-52820000D02*
X125200000Y-52820000D01*
X125800000Y-52820000D02*
X130870000Y-52820000D01*
X127704000Y-49269000D02*
X127589000Y-49383000D01*
X127931000Y-49496000D02*
X127816000Y-49610000D01*
X130184000Y-46789000D02*
X130069000Y-46904000D01*
X130411000Y-47016000D02*
X130296000Y-47131000D01*
X130870000Y-44980000D02*
X130870000Y-52820000D01*
X123820000Y-48998000D02*
G75*
G02*
X123820192Y-47401595I1679997J798000D01*
G01*
X124702000Y-46520000D02*
G75*
G02*
X126298405Y-46520192I798000J-1680000D01*
G01*
X126298000Y-49880000D02*
G75*
G02*
X124701595Y-49879808I-798000J1679997D01*
G01*
X127180000Y-47816000D02*
G75*
G02*
X127179865Y-48583361I1820000J-384000D01*
G01*
X125940000Y-53430000D02*
X125060000Y-53430000D01*
X125500000Y-52820000D01*
X125940000Y-53430000D01*
G36*
X125940000Y-53430000D02*
G01*
X125060000Y-53430000D01*
X125500000Y-52820000D01*
X125940000Y-53430000D01*
G37*
D10*
%TO.C,J12*%
X110400000Y-53945000D02*
X110400000Y-54445000D01*
X110400000Y-53945000D02*
X110900000Y-53945000D01*
X117000000Y-53945000D02*
X116500000Y-53945000D01*
X117000000Y-53945000D02*
X117000000Y-54445000D01*
%TO.C,J5*%
X134220000Y-44700000D02*
X134220000Y-45200000D01*
X134220000Y-44700000D02*
X134720000Y-44700000D01*
X134220000Y-47500000D02*
X134220000Y-47000000D01*
X134220000Y-47500000D02*
X134720000Y-47500000D01*
X152120000Y-44700000D02*
X151620000Y-44700000D01*
X152120000Y-44700000D02*
X152120000Y-45200000D01*
X152120000Y-47500000D02*
X151620000Y-47500000D01*
X152120000Y-47500000D02*
X152120000Y-47000000D01*
D12*
%TO.C,Slave2*%
X159200000Y-60450000D02*
X159200000Y-103890000D01*
X159200000Y-60450000D02*
X164280000Y-60450000D01*
X159200000Y-103890000D02*
X177240000Y-103890000D01*
X161870000Y-63120000D02*
X159200000Y-63120000D01*
X161870000Y-101220000D02*
X159200000Y-101220000D01*
X161870000Y-101220000D02*
X161870000Y-63120000D01*
X164280000Y-57910000D02*
X172160000Y-57910000D01*
X164280000Y-68330000D02*
X164280000Y-57910000D01*
X172160000Y-57910000D02*
X172160000Y-68330000D01*
X172160000Y-68330000D02*
X164280000Y-68330000D01*
X174570000Y-63120000D02*
X177240000Y-63120000D01*
X174570000Y-98680000D02*
X174570000Y-63120000D01*
X174570000Y-98680000D02*
X174570000Y-101220000D01*
X174570000Y-98680000D02*
X177240000Y-98680000D01*
X174570000Y-101220000D02*
X177240000Y-101220000D01*
X177240000Y-60450000D02*
X172160000Y-60450000D01*
X177240000Y-98680000D02*
X177240000Y-60450000D01*
X177240000Y-103890000D02*
X177240000Y-101220000D01*
%TO.C,Master1*%
X139800000Y-60460000D02*
X139800000Y-63130000D01*
X139800000Y-65670000D02*
X139800000Y-103900000D01*
X139800000Y-103900000D02*
X144880000Y-103900000D01*
X142470000Y-63130000D02*
X139800000Y-63130000D01*
X142470000Y-65670000D02*
X139800000Y-65670000D01*
X142470000Y-65670000D02*
X142470000Y-63130000D01*
X142470000Y-65670000D02*
X142470000Y-101230000D01*
X142470000Y-101230000D02*
X139800000Y-101230000D01*
X144880000Y-96020000D02*
X152760000Y-96020000D01*
X144880000Y-106440000D02*
X144880000Y-96020000D01*
X152760000Y-96020000D02*
X152760000Y-106440000D01*
X152760000Y-106440000D02*
X144880000Y-106440000D01*
X155170000Y-63130000D02*
X155170000Y-101230000D01*
X155170000Y-63130000D02*
X157840000Y-63130000D01*
X155170000Y-101230000D02*
X157840000Y-101230000D01*
X157840000Y-60460000D02*
X139800000Y-60460000D01*
X157840000Y-103900000D02*
X152760000Y-103900000D01*
X157840000Y-103900000D02*
X157840000Y-60460000D01*
%TO.C,Slave1*%
X120195000Y-60515000D02*
X120195000Y-63185000D01*
X120195000Y-65725000D02*
X120195000Y-103955000D01*
X120195000Y-103955000D02*
X125275000Y-103955000D01*
X122865000Y-63185000D02*
X120195000Y-63185000D01*
X122865000Y-65725000D02*
X120195000Y-65725000D01*
X122865000Y-65725000D02*
X122865000Y-63185000D01*
X122865000Y-65725000D02*
X122865000Y-101285000D01*
X122865000Y-101285000D02*
X120195000Y-101285000D01*
X125275000Y-96075000D02*
X133155000Y-96075000D01*
X125275000Y-106495000D02*
X125275000Y-96075000D01*
X133155000Y-96075000D02*
X133155000Y-106495000D01*
X133155000Y-106495000D02*
X125275000Y-106495000D01*
X135565000Y-63185000D02*
X135565000Y-101285000D01*
X135565000Y-63185000D02*
X138235000Y-63185000D01*
X135565000Y-101285000D02*
X138235000Y-101285000D01*
X138235000Y-60515000D02*
X120195000Y-60515000D01*
X138235000Y-103955000D02*
X133155000Y-103955000D01*
X138235000Y-103955000D02*
X138235000Y-60515000D01*
D10*
%TO.C,J13*%
X110400000Y-80595000D02*
X110400000Y-81095000D01*
X110400000Y-80595000D02*
X110900000Y-80595000D01*
X117000000Y-80595000D02*
X116500000Y-80595000D01*
X117000000Y-80595000D02*
X117000000Y-81095000D01*
%TO.C,J21*%
X110300000Y-100970000D02*
X110300000Y-101470000D01*
X110300000Y-100970000D02*
X110800000Y-100970000D01*
X110310000Y-108640000D02*
X110310000Y-108140000D01*
X110310000Y-108640000D02*
X110810000Y-108640000D01*
X116890000Y-108640000D02*
X116390000Y-108640000D01*
X116890000Y-108640000D02*
X116890000Y-108140000D01*
X116900000Y-100970000D02*
X116400000Y-100970000D01*
X116900000Y-100970000D02*
X116900000Y-101470000D01*
%TD*%
M02*
