M48
; DRILL file {KiCad 9.0.0-1.fc41} date 2025-04-20T16:26:25+0200
; FORMAT={-:-/ absolute / metric / decimal}
; #@! TF.CreationDate,2025-04-20T16:26:25+02:00
; #@! TF.GenerationSoftware,Kicad,Pcbnew,9.0.0-1.fc41
; #@! TF.FileFunction,Plated,1,2,PTH
FMAT,2
METRIC
; #@! TA.AperFunction,Plated,PTH,ViaDrill
T1C0.300
; #@! TA.AperFunction,Plated,PTH,ComponentDrill
T2C1.000
; #@! TA.AperFunction,Plated,PTH,ComponentDrill
T3C1.020
; #@! TA.AperFunction,Plated,PTH,ComponentDrill
T4C1.200
; #@! TA.AperFunction,Plated,PTH,ComponentDrill
T5C3.200
%
G90
G05
T1
X107.9Y-107.875
X108.125Y-119.15
X108.25Y-80.675
X108.25Y-98.075
X108.375Y-89.5
X108.5Y-69.75
X108.625Y-59.825
X110.3Y-46.975
X111.175Y-113.975
X113.7Y-71.4
X114.15Y-97.95
X115.35Y-88.3
X115.645Y-71.205
X119.975Y-47.1
X120.1Y-37.5
X120.925Y-56.825
X122.275Y-122.975
X123.075Y-127.6
X124.275Y-107.675
X126.55Y-67.875
X126.625Y-56.5
X126.95Y-96.95
X127.325Y-88.9
X130.55Y-108.8
X130.875Y-37.225
X131.75Y-48.35
X131.75Y-53.35
X132.9Y-81.825
X133.75Y-70.2
X133.75Y-127.225
X133.925Y-59.15
X138.35Y-52.9
X138.95Y-65.675
X139.3Y-115.325
X139.9Y-54.45
X140.0Y-51.9
X140.425Y-58.725
X141.6Y-37.25
X143.5Y-65.125
X143.7Y-107.8
X144.825Y-90.375
X144.85Y-59.4
X144.85Y-63.2
X144.85Y-81.9
X145.375Y-42.55
X145.5Y-127.1
X147.3Y-58.05
X147.3Y-62.95
X147.825Y-121.7
X148.525Y-111.2
X148.575Y-103.775
X148.75Y-94.0
X148.775Y-85.75
X148.825Y-77.275
X149.0Y-58.05
X149.0Y-63.15
X150.8Y-63.05
X151.65Y-37.275
X153.475Y-70.05
X154.15Y-115.45
X155.925Y-127.1
X158.575Y-73.3
X162.325Y-77.125
X162.375Y-51.325
X162.575Y-36.975
X165.475Y-105.05
X165.475Y-126.5
X165.725Y-115.95
X167.05Y-93.2
X170.625Y-66.025
X170.725Y-75.775
X171.2Y-44.225
X173.475Y-109.85
X173.575Y-36.925
X174.775Y-58.75
X176.75Y-49.125
X176.75Y-126.625
X178.175Y-77.825
X179.4Y-98.1
X179.4Y-106.5
X180.025Y-84.725
X180.05Y-65.85
X180.05Y-112.35
X182.25Y-71.975
X185.25Y-80.4
X185.275Y-117.625
X185.3Y-100.9
X186.3Y-60.25
X186.3Y-64.95
X186.3Y-76.2
X186.35Y-85.05
X186.35Y-99.45
X189.575Y-109.55
T2
X121.595Y-64.455
X121.595Y-66.995
X121.595Y-69.535
X121.595Y-72.075
X121.595Y-74.615
X121.595Y-77.155
X121.595Y-79.695
X121.595Y-82.235
X121.595Y-84.775
X121.595Y-87.315
X121.595Y-89.855
X121.595Y-92.395
X121.595Y-94.935
X121.595Y-97.475
X121.595Y-100.015
X136.8Y-46.1
X136.835Y-64.455
X136.835Y-66.995
X136.835Y-69.535
X136.835Y-72.075
X136.835Y-74.615
X136.835Y-77.155
X136.835Y-79.695
X136.835Y-82.235
X136.835Y-84.775
X136.835Y-87.315
X136.835Y-89.855
X136.835Y-92.395
X136.835Y-94.935
X136.835Y-97.475
X136.835Y-100.015
X139.34Y-46.1
X141.2Y-64.4
X141.2Y-66.94
X141.2Y-69.48
X141.2Y-72.02
X141.2Y-74.56
X141.2Y-77.1
X141.2Y-79.64
X141.2Y-82.18
X141.2Y-84.72
X141.2Y-87.26
X141.2Y-89.8
X141.2Y-92.34
X141.2Y-94.88
X141.2Y-97.42
X141.2Y-99.96
X141.88Y-46.1
X142.44Y-119.545
X144.42Y-46.1
X144.98Y-119.545
X146.96Y-46.1
X147.52Y-119.545
X149.5Y-46.1
X150.06Y-119.545
X152.6Y-119.545
X155.14Y-119.545
X156.44Y-64.4
X156.44Y-66.94
X156.44Y-69.48
X156.44Y-72.02
X156.44Y-74.56
X156.44Y-77.1
X156.44Y-79.64
X156.44Y-82.18
X156.44Y-84.72
X156.44Y-87.26
X156.44Y-89.8
X156.44Y-92.34
X156.44Y-94.88
X156.44Y-97.42
X156.44Y-99.96
X160.6Y-64.39
X160.6Y-66.93
X160.6Y-69.47
X160.6Y-72.01
X160.6Y-74.55
X160.6Y-77.09
X160.6Y-79.63
X160.6Y-82.17
X160.6Y-84.71
X160.6Y-87.25
X160.6Y-89.79
X160.6Y-92.33
X160.6Y-94.87
X160.6Y-97.41
X160.6Y-99.95
X175.84Y-64.39
X175.84Y-66.93
X175.84Y-69.47
X175.84Y-72.01
X175.84Y-74.55
X175.84Y-77.09
X175.84Y-79.63
X175.84Y-82.17
X175.84Y-84.71
X175.84Y-87.25
X175.84Y-89.79
X175.84Y-92.33
X175.84Y-94.87
X175.84Y-97.41
X175.84Y-99.95
T3
X113.6Y-102.27
X113.6Y-104.81
X113.6Y-107.35
X113.62Y-110.71
X113.62Y-113.25
X113.62Y-115.79
X113.62Y-118.33
X113.7Y-49.495
X113.7Y-52.035
X113.7Y-55.245
X113.7Y-57.785
X113.7Y-60.325
X113.7Y-62.865
X113.7Y-76.105
X113.7Y-78.645
X113.7Y-81.895
X113.7Y-84.435
X113.7Y-86.975
X113.7Y-89.515
X154.39Y-45.9
X156.93Y-45.9
X159.47Y-45.9
X162.01Y-45.9
X183.8Y-49.52
X183.8Y-52.06
X183.8Y-55.335
X183.8Y-57.875
X183.8Y-60.415
X183.8Y-62.955
X183.82Y-76.26
X183.82Y-78.8
X183.82Y-82.05
X183.82Y-84.59
X183.82Y-87.13
X183.82Y-89.67
X183.85Y-102.77
X183.85Y-105.31
X183.85Y-107.85
X183.9Y-111.25
X183.9Y-113.79
X183.9Y-116.33
X183.9Y-118.87
T4
X120.35Y-115.8
X123.85Y-115.8
X125.5Y-48.2
X129.0Y-48.2
X173.7Y-115.8
X177.2Y-115.8
T5
X111.437Y-39.5
X111.437Y-124.5
X186.423Y-39.5
X186.423Y-124.5
M30
