M48
; DRILL file {KiCad 9.0.0-1.fc41} date 2025-04-21T01:51:48+0200
; FORMAT={-:-/ absolute / metric / decimal}
; #@! TF.CreationDate,2025-04-21T01:51:48+02:00
; #@! TF.GenerationSoftware,Kicad,Pcbnew,9.0.0-1.fc41
; #@! TF.FileFunction,Plated,1,2,PTH
FMAT,2
METRIC
; #@! TA.AperFunction,Plated,PTH,ViaDrill
T1C0.300
; #@! TA.AperFunction,Plated,PTH,ComponentDrill
T2C1.020
; #@! TA.AperFunction,Plated,PTH,ComponentDrill
T3C1.300
; #@! TA.AperFunction,Plated,PTH,ComponentDrill
T4C3.200
%
G90
G05
T1
X132.0Y-72.0
X132.0Y-80.0
X139.8Y-86.4
X140.0Y-81.8
X142.4Y-72.4
X145.0Y-80.0
X150.8Y-84.6
X151.0Y-80.0
X154.0Y-77.4
X163.0Y-72.0
X163.2Y-77.2
T2
X139.917Y-84.125
X142.457Y-84.125
X153.357Y-82.155
X153.357Y-84.695
X153.357Y-87.235
T3
X139.0Y-72.3
X139.0Y-77.3
X157.0Y-72.3
X157.0Y-77.3
T4
X134.0Y-85.0
X147.5Y-72.0
X161.0Y-85.0
M30
