M48
; DRILL file {KiCad 9.0.0-1.fc41} date 2025-04-16T09:35:59+0200
; FORMAT={-:-/ absolute / metric / decimal}
; #@! TF.CreationDate,2025-04-16T09:35:59+02:00
; #@! TF.GenerationSoftware,Kicad,Pcbnew,9.0.0-1.fc41
; #@! TF.FileFunction,Plated,1,2,PTH
FMAT,2
METRIC
; #@! TA.AperFunction,Plated,PTH,ViaDrill
T1C0.300
; #@! TA.AperFunction,Plated,PTH,ViaDrill
T2C0.600
; #@! TA.AperFunction,Plated,PTH,ViaDrill
T3C1.000
; #@! TA.AperFunction,Plated,PTH,ComponentDrill
T4C1.000
; #@! TA.AperFunction,Plated,PTH,ComponentDrill
T5C1.020
; #@! TA.AperFunction,Plated,PTH,ComponentDrill
T6C1.300
; #@! TA.AperFunction,Plated,PTH,ComponentDrill
T7C3.200
%
G90
G05
T1
X101.7Y-118.45
X102.75Y-81.55
X103.2Y-117.1
X112.3Y-127.55
X115.05Y-75.0
X115.2Y-110.6
X119.25Y-124.85
X119.3Y-89.7
X127.15Y-91.15
X129.1Y-124.9
X135.05Y-82.55
X135.218Y-117.4
X136.4Y-81.35
X136.65Y-118.6
X144.55Y-127.35
X145.75Y-91.85
X147.5Y-110.25
X149.65Y-76.85
X152.1Y-90.0
X152.4Y-124.7
X160.9Y-125.25
X161.9Y-89.9
T2
X100.25Y-138.55
X112.5Y-95.5
X119.5Y-112.3
X132.9Y-138.55
X151.7Y-74.15
X151.75Y-111.95
X158.7Y-79.9
T3
X122.242Y-79.8
T4
X90.46Y-68.66
X90.46Y-71.2
X93.0Y-68.66
X93.0Y-71.2
X95.54Y-68.66
X95.54Y-71.2
X98.08Y-68.66
X98.08Y-71.2
X100.62Y-68.66
X100.62Y-71.2
X103.16Y-68.66
X103.16Y-71.2
X105.7Y-68.66
X105.7Y-71.2
X108.24Y-68.66
X108.24Y-71.2
X110.78Y-68.66
X110.78Y-71.2
X113.32Y-68.66
X113.32Y-71.2
X115.86Y-68.66
X115.86Y-71.2
X118.4Y-68.66
X118.4Y-71.2
X120.94Y-68.66
X120.94Y-71.2
X123.48Y-68.66
X123.48Y-71.2
X126.02Y-68.66
X126.02Y-71.2
X128.56Y-68.66
X128.56Y-71.2
T5
X169.96Y-126.5
X172.5Y-126.5
T6
X88.892Y-128.85
X93.892Y-128.85
X170.285Y-78.7
X170.285Y-83.7
X170.285Y-90.0
X170.285Y-95.0
X170.285Y-101.315
X170.285Y-106.315
X170.285Y-112.5
X170.285Y-117.5
T7
X85.0Y-70.0
X85.0Y-140.0
X173.0Y-70.0
X173.0Y-140.0
M30
