M48
; DRILL file {KiCad 9.0.0-1.fc41} date 2025-04-13T20:28:44+0200
; FORMAT={-:-/ absolute / metric / decimal}
; #@! TF.CreationDate,2025-04-13T20:28:44+02:00
; #@! TF.GenerationSoftware,Kicad,Pcbnew,9.0.0-1.fc41
; #@! TF.FileFunction,Plated,1,2,PTH
FMAT,2
METRIC
; #@! TA.AperFunction,Plated,PTH,ViaDrill
T1C0.300
; #@! TA.AperFunction,Plated,PTH,ComponentDrill
T2C1.000
; #@! TA.AperFunction,Plated,PTH,ComponentDrill
T3C1.020
; #@! TA.AperFunction,Plated,PTH,ComponentDrill
T4C1.200
; #@! TA.AperFunction,Plated,PTH,ComponentDrill
T5C3.200
%
G90
G05
T1
X136.65Y-48.7
X140.0Y-51.9
T2
X121.595Y-64.455
X121.595Y-66.995
X121.595Y-69.535
X121.595Y-72.075
X121.595Y-74.615
X121.595Y-77.155
X121.595Y-79.695
X121.595Y-82.235
X121.595Y-84.775
X121.595Y-87.315
X121.595Y-89.855
X121.595Y-92.395
X121.595Y-94.935
X121.595Y-97.475
X121.595Y-100.015
X136.8Y-46.1
X136.835Y-64.455
X136.835Y-66.995
X136.835Y-69.535
X136.835Y-72.075
X136.835Y-74.615
X136.835Y-77.155
X136.835Y-79.695
X136.835Y-82.235
X136.835Y-84.775
X136.835Y-87.315
X136.835Y-89.855
X136.835Y-92.395
X136.835Y-94.935
X136.835Y-97.475
X136.835Y-100.015
X139.34Y-46.1
X141.2Y-64.4
X141.2Y-66.94
X141.2Y-69.48
X141.2Y-72.02
X141.2Y-74.56
X141.2Y-77.1
X141.2Y-79.64
X141.2Y-82.18
X141.2Y-84.72
X141.2Y-87.26
X141.2Y-89.8
X141.2Y-92.34
X141.2Y-94.88
X141.2Y-97.42
X141.2Y-99.96
X141.88Y-46.1
X142.44Y-119.545
X144.42Y-46.1
X144.98Y-119.545
X146.96Y-46.1
X147.52Y-119.545
X149.5Y-46.1
X150.06Y-119.545
X152.6Y-119.545
X155.14Y-119.545
X156.44Y-64.4
X156.44Y-66.94
X156.44Y-69.48
X156.44Y-72.02
X156.44Y-74.56
X156.44Y-77.1
X156.44Y-79.64
X156.44Y-82.18
X156.44Y-84.72
X156.44Y-87.26
X156.44Y-89.8
X156.44Y-92.34
X156.44Y-94.88
X156.44Y-97.42
X156.44Y-99.96
X160.6Y-64.39
X160.6Y-66.93
X160.6Y-69.47
X160.6Y-72.01
X160.6Y-74.55
X160.6Y-77.09
X160.6Y-79.63
X160.6Y-82.17
X160.6Y-84.71
X160.6Y-87.25
X160.6Y-89.79
X160.6Y-92.33
X160.6Y-94.87
X160.6Y-97.41
X160.6Y-99.95
X175.84Y-64.39
X175.84Y-66.93
X175.84Y-69.47
X175.84Y-72.01
X175.84Y-74.55
X175.84Y-77.09
X175.84Y-79.63
X175.84Y-82.17
X175.84Y-84.71
X175.84Y-87.25
X175.84Y-89.79
X175.84Y-92.33
X175.84Y-94.87
X175.84Y-97.41
X175.84Y-99.95
T3
X113.6Y-102.27
X113.6Y-104.81
X113.6Y-107.35
X113.62Y-110.71
X113.62Y-113.25
X113.62Y-115.79
X113.62Y-118.33
X113.7Y-49.495
X113.7Y-52.035
X113.7Y-55.245
X113.7Y-57.785
X113.7Y-60.325
X113.7Y-62.865
X113.7Y-76.105
X113.7Y-78.645
X113.7Y-81.895
X113.7Y-84.435
X113.7Y-86.975
X113.7Y-89.515
X154.39Y-45.9
X156.93Y-45.9
X159.47Y-45.9
X162.01Y-45.9
X183.8Y-49.52
X183.8Y-52.06
X183.8Y-55.335
X183.8Y-57.875
X183.8Y-60.415
X183.8Y-62.955
X183.82Y-76.26
X183.82Y-78.8
X183.82Y-82.05
X183.82Y-84.59
X183.82Y-87.13
X183.82Y-89.67
X183.85Y-102.77
X183.85Y-105.31
X183.85Y-107.85
X183.9Y-111.25
X183.9Y-113.79
X183.9Y-116.33
X183.9Y-118.87
T4
X120.35Y-115.8
X123.85Y-115.8
X125.5Y-48.2
X129.0Y-48.2
X168.85Y-42.95
X173.7Y-115.8
X174.15Y-42.95
X177.2Y-115.8
T5
X111.437Y-39.5
X111.437Y-124.5
X186.423Y-39.5
X186.423Y-124.5
M30
